<svg xmlns="http://www.w3.org/2000/svg" viewBox="0 0 32 32" role="img" aria-label="Archive extractor">
  <rect width="32" height="32" rx="8" fill="#315c64"/>
  <path d="M8 9.5A1.5 1.5 0 0 1 9.5 8h13A1.5 1.5 0 0 1 24 9.5v13A1.5 1.5 0 0 1 22.5 24h-13A1.5 1.5 0 0 1 8 22.5Z" fill="#fff" opacity=".96"/>
  <path d="M12 12h8M12 15h8M12 18h5" fill="none" stroke="#315c64" stroke-width="1.7" stroke-linecap="round"/>
  <path d="M20 18v5m0 0-2-2m2 2 2-2" fill="none" stroke="#d9482f" stroke-width="1.7" stroke-linecap="round" stroke-linejoin="round"/>
  <path d="M10 8h5l2 3h7v2H8V9.5A1.5 1.5 0 0 1 9.5 8Z" fill="#f2c94c"/>
</svg>
