<svg xmlns="http://www.w3.org/2000/svg" viewBox="0 0 64 64"><rect width="64" height="64" rx="14" fill="#fff7ed"/><path d="M12 36V28l4 4v8l-4-4z" fill="#0d9488"/><path d="M20 32l4-4v8l-4 4V32z" fill="#14b8a6"/><path d="M28 28l4 4v8l-4-4V28z" fill="#2dd4bf" opacity=".9"/><path d="M36 32l4-4v8l-4 4V32z" fill="#0d9488"/><path d="M44 36l4-4v8l-4 4V36z" fill="#14b8a6"/><path d="M52 32l4-4v8l-4 4V32z" fill="#2dd4bf" opacity=".85"/><path d="M18 14h6M21 11v6" fill="none" stroke="#ea580c" stroke-width="2.2" stroke-linecap="round"/><path d="M40 50h6M43 47v6" fill="none" stroke="#c2410c" stroke-width="2.2" stroke-linecap="round"/><path d="M14 48h36" fill="none" stroke="#9a3412" stroke-width="1.8" stroke-linecap="round" opacity=".5"/></svg>
